PathFileType	4	(X/Y/Z)	Patient4_TMGait_0pt3_02_left_20.trc.trc
DataRate	CameraRate	NumFrames	NumMarkers	Units	OrigDataRate	OrigDataStartFrame	OrigNumFrames
50.000000000000	50.000000000000	5	33	mm	50.000000000000	106	       141
Frame#	Time	Sacral			L.Shoulder			Chest			R.Shoulder			Neck			R.ASIS			L.ASIS			R.Thigh.Superior			R.Thigh.Lateral			R.Thigh.Inferior			R.Patella			L.Thigh.Superior			L.Thigh.Lateral			L.Thigh.Inferior			L.Patella			L.Shank.Superior			L.Shank.Lateral			L.Shank.Inferior			R.Shank.Superior			R.Shank.Lateral			R.Shank.Inferior			R.Heel			R.Midfoot.Superior			R.Midfoot.Lateral			R.Toe			L.Heel			L.Midfoot.Lateral			L.Midfoot.Superior			L.Toe			L.Elbow			L.Wrist			R.Elbow			R.Wrist			
		X1	Y1	Z1	X2	Y2	Z2	X3	Y3	Z3	X4	Y4	Z4	X5	Y5	Z5	X6	Y6	Z6	X7	Y7	Z7	X8	Y8	Z8	X9	Y9	Z9	X10	Y10	Z10	X11	Y11	Z11	X12	Y12	Z12	X13	Y13	Z13	X14	Y14	Z14	X15	Y15	Z15	X16	Y16	Z16	X17	Y17	Z17	X18	Y18	Z18	X19	Y19	Z19	X20	Y20	Z20	X21	Y21	Z21	X22	Y22	Z22	X23	Y23	Z23	X24	Y24	Z24	X25	Y25	Z25	X26	Y26	Z26	X27	Y27	Z27	X28	Y28	Z28	X29	Y29	Z29	X30	Y30	Z30	X31	Y31	Z31	X32	Y32	Z32	X33	Y33	Z33	

106	41.180000000000	758.579390599133	990.711601832160	560.759295784713	935.465949725079	1416.435530656606	365.665262003890	1047.514486934827	1343.063159350028	518.447761516455	982.371206302775	1417.225875969858	699.019923318352	935.141167979357	1479.526955122220	524.679596926382	998.864072094186	923.921319911805	657.019112629319	959.906608397566	948.172192852587	386.381859484698	1046.358700762766	728.773544856968	609.916656708259	974.861144364226	610.272282972966	662.669758538073	1048.973775546541	568.115033980125	573.002469681985	1052.934633149740	471.797113395150	572.319738446733	1042.576483787488	759.738368409611	413.860150067384	991.767764924145	634.190532869623	337.198082764963	1091.458761135125	567.885755690427	400.902124122503	1101.451140914056	480.264613218776	388.914623942179	1038.062637773523	415.633106506942	374.692619392551	898.271107281434	364.672204889941	331.288698947533	904.117909468916	229.967921962319	371.483950896460	1006.224055504211	385.528344005464	575.231718041677	922.543913673635	290.695713495418	637.505635578170	939.320563213209	195.885463287263	565.554132136487	777.896801636390	44.764103641778	538.716606986918	952.031601328440	96.065704428655	567.665157500063	863.928680138369	37.798342805586	609.370420874665	1071.848247127008	40.143007166023	591.453139853280	726.881567865703	133.139097564334	415.899917629575	781.550347170490	112.704481732340	324.369547814058	885.285830475657	135.231120189802	339.052618820376	975.634104943156	45.333971027370	284.048923648201	896.288663560131	1061.370130776883	257.450951689572	987.634423765746	816.549175682402	250.913251325573	1001.818642426243	1061.108304398384	808.278776198233	1135.663719872698	838.924307303230	812.848241799363	
107	41.200000000000	757.165425389498	989.898590873241	563.477820280867	930.658170409077	1415.704440655033	366.757279738891	1045.264444451159	1342.470039744305	517.697334116802	983.035554972017	1416.483602562933	699.384191921860	933.054606095782	1478.925704527946	525.711743345659	998.308435444203	923.062027508944	656.841362352723	956.706748360358	948.104346954533	386.719682623773	1044.779744854178	727.680851763626	609.317768180994	973.781757182825	609.204278027398	662.711042844126	1046.993379285882	567.071742961258	572.257951421871	1050.636759341036	470.497266894291	571.498503719800	1041.442771485630	761.917905678501	414.110380063301	992.890153750647	636.008313112562	336.867957374631	1093.436283566041	571.302202941736	400.521760553913	1105.969853171123	484.824211733466	388.000067618048	1045.999033075006	418.435378844278	373.246829070570	909.482152287906	359.940116929984	329.753909219513	923.326896430145	225.484107863342	369.128764375329	1003.229971955451	384.391944991603	574.645630993078	919.086531226481	290.145016377204	637.338396940404	934.588545629118	195.285707167078	565.283744143844	771.922644361665	44.896089249788	538.804658833842	946.067260275232	95.994648654153	567.635069007463	857.961483626129	37.808351174534	609.415289315704	1065.878991788106	40.001038150770	591.466728406379	752.354668682936	117.993388420655	413.525351973352	807.969755160561	101.601594998491	321.613754862360	910.160613982510	130.125485904895	336.152098545702	1005.598315121857	46.442340026191	280.225852909139	879.228208200504	1061.367601537687	261.612223336694	954.387649267984	810.972700213060	256.075740748327	1018.313794404257	1061.196728868264	807.300245210853	1169.466427320573	850.356778782100	806.678741935423	
108	41.220000000000	755.811703284164	989.582935474589	565.940331220167	925.838076094662	1415.490471505625	367.756934895455	1043.034020668807	1342.334901306075	516.732488249647	983.813397909944	1416.198282354429	699.499547509037	930.986403367267	1478.749119978141	526.591308258071	997.772397647919	922.557773991599	656.341616163848	953.542892075082	948.417064749283	386.748300688045	1042.794107687202	726.783609922193	608.494601915349	972.114000770489	608.483783192569	662.708836815160	1044.270967185124	566.199105179261	571.476643726032	1047.456678697366	469.491407632259	570.721500681431	1039.792144433987	764.086574458903	414.051664751621	993.175073804462	637.986835799954	336.157732257768	1094.358598955771	574.637529006694	399.757470546550	1109.336472273850	489.568106900895	386.753485412779	1053.109864026847	421.561588175035	371.509215549316	920.670520206910	355.132871504351	327.549120577041	942.856058832156	221.427401835864	366.359291087433	999.516320722465	383.537647138372	574.123457345072	915.111633118020	289.744477406432	637.245841797050	929.564968811818	194.859467714455	565.089145381016	765.932117807058	45.052352487854	538.914682953598	940.079508180604	95.927165033006	567.618269269980	851.983410031540	37.819435067588	609.477078059520	1059.892915049270	39.873197404320	591.471328693534	778.909854526305	103.367835058406	410.319251604575	835.652870965415	90.729158694362	318.363114139541	935.935408013029	125.360100350588	333.019167928128	1036.447509749321	47.993402133052	276.976944180692	862.093671232769	1062.483183515743	265.633258826652	921.941243083846	807.973893635195	261.458464239582	1034.479206908411	1062.563013525236	805.925468122560	1202.086469117470	864.525111368224	799.987238915896	
109	41.240000000000	754.533097921048	989.801320969500	568.138379968416	921.066371518153	1415.825920949529	368.640018425802	1040.850167843149	1342.678662697333	515.549333693468	984.706095773501	1416.397569299274	699.348196216516	928.965695702718	1479.024189578699	527.292131351976	997.249589910185	922.448339221040	655.560143124835	950.446110823903	949.128659003129	386.483411696711	1040.394932367570	726.113333290734	607.531159796284	969.797595690334	608.148387274608	662.701677521773	1040.781500167978	565.525867361688	570.744863583323	1043.361116850221	468.811558348233	570.079197572378	1037.665361621714	766.239426609853	413.685715591964	992.617384155953	640.090293688917	335.083263657824	1094.268377057090	577.835682528388	398.578308769288	1111.538406241463	494.419175667651	385.195390082067	1059.292681281883	425.002578650048	369.545679330853	931.711585014956	350.518615746189	324.747709910781	962.328435272948	218.116418458822	363.296325805450	995.046599603829	382.999011261594	573.730582725222	910.570891398967	289.522976208987	637.269260767197	924.231079306037	194.633683693807	565.002571903002	759.923695011522	45.239521996639	539.045210340369	934.079302028046	95.869295967647	567.626219059522	845.993861422692	37.836302172517	609.554942498513	1053.889018516784	39.757867988791	591.468984123475	806.029698444324	89.930487860191	406.432491251731	864.076252558881	80.674604278968	314.772780713373	962.105546425177	121.327301796051	329.796918023357	1067.516344350485	50.202857340810	274.458496306818	845.134453469650	1064.721048918648	269.506994553994	890.729811354318	807.352480089959	266.979133956643	1050.114116482081	1065.166411147113	804.179703101892	1233.000502526434	881.173483240910	792.930627214874	
110	41.260000000000	753.347059981081	990.548022960358	570.060765838869	916.406977452720	1416.696326854315	369.375075225818	1038.735971665161	1343.487422184181	514.151029514182	985.693227840517	1417.076979368743	698.916353781004	927.014326720911	1479.741944069712	527.781729833508	996.732613979115	922.738573746029	654.548942785964	947.450418452248	950.226711128874	385.953320329379	1037.594404510139	725.679411142241	606.506541125112	966.804718694642	608.207197135680	662.718069294617	1036.535311626848	565.063464314587	570.132799852094	1038.358453188711	468.468559079556	569.638546247645	1035.127099135812	768.352057946570	412.998698673535	991.217664589767	642.258046224714	333.669236102946	1093.219875898216	580.821838080678	396.952283235256	1112.574929289993	499.275218081138	383.350987190592	1064.454428447095	428.711878288060	367.421847336815	942.449291752029	346.303255195249	321.442138986525	981.359443188676	215.764413406322	360.060004297698	989.824223497500	382.787378822875	573.512702542098	905.446828029961	289.495373897123	637.430840881523	918.585790949806	194.620084317895	565.041702742527	753.897772485606	45.458453581414	539.191957380101	928.078477586356	95.826702704256	567.667476081633	839.992655688679	37.862430279881	609.646414358822	1047.867300966557	39.653915418068	591.462413062133	833.160493909214	78.162793780304	402.036669918184	892.680926295131	71.876133535074	311.002232908448	988.152333278904	118.305714924268	326.615251089224	1098.168916540860	53.214458666407	272.770526471449	828.598220307928	1068.009799617142	273.222119910400	861.130500772198	808.814884032662	272.543644496978	1065.037938934731	1068.905908574713	802.092554041197	1261.771835369839	899.927505506319	785.655976025145	
